<svg id="visual" viewBox="0 0 900 600" width="900" height="600" xmlns="http://www.w3.org/2000/svg" xmlns:xlink="http://www.w3.org/1999/xlink" version="1.1"><rect x="0" y="0" width="900" height="600" fill="#2a5063"></rect><path d="M0 253L5.8 263.5C11.7 274 23.3 295 34.8 291.3C46.3 287.7 57.7 259.3 69.2 260.3C80.7 261.3 92.3 291.7 103.8 291.2C115.3 290.7 126.7 259.3 138.2 247C149.7 234.7 161.3 241.3 173 241.8C184.7 242.3 196.3 236.7 207.8 236.7C219.3 236.7 230.7 242.3 242.2 245C253.7 247.7 265.3 247.3 277 256.5C288.7 265.7 300.3 284.3 311.8 296.2C323.3 308 334.7 313 346.2 298.8C357.7 284.7 369.3 251.3 380.8 248.2C392.3 245 403.7 272 415.2 275.7C426.7 279.3 438.3 259.7 450 251.2C461.7 242.7 473.3 245.3 484.8 247.8C496.3 250.3 507.7 252.7 519.2 260.7C530.7 268.7 542.3 282.3 553.8 292.3C565.3 302.3 576.7 308.7 588.2 297.8C599.7 287 611.3 259 623 253.2C634.7 247.3 646.3 263.7 657.8 270.3C669.3 277 680.7 274 692.2 279.7C703.7 285.3 715.3 299.7 727 308C738.7 316.3 750.3 318.7 761.8 320.2C773.3 321.7 784.7 322.3 796.2 320.5C807.7 318.7 819.3 314.3 830.8 296.7C842.3 279 853.7 248 865.2 249.5C876.7 251 888.3 285 894.2 302L900 319L900 0L894.2 0C888.3 0 876.7 0 865.2 0C853.7 0 842.3 0 830.8 0C819.3 0 807.7 0 796.2 0C784.7 0 773.3 0 761.8 0C750.3 0 738.7 0 727 0C715.3 0 703.7 0 692.2 0C680.7 0 669.3 0 657.8 0C646.3 0 634.7 0 623 0C611.3 0 599.7 0 588.2 0C576.7 0 565.3 0 553.8 0C542.3 0 530.7 0 519.2 0C507.7 0 496.3 0 484.8 0C473.3 0 461.7 0 450 0C438.3 0 426.7 0 415.2 0C403.7 0 392.3 0 380.8 0C369.3 0 357.7 0 346.2 0C334.7 0 323.3 0 311.8 0C300.3 0 288.7 0 277 0C265.3 0 253.7 0 242.2 0C230.7 0 219.3 0 207.8 0C196.3 0 184.7 0 173 0C161.3 0 149.7 0 138.2 0C126.7 0 115.3 0 103.8 0C92.3 0 80.7 0 69.2 0C57.7 0 46.3 0 34.8 0C23.3 0 11.7 0 5.8 0L0 0Z" fill="#0066FF" stroke-linecap="round" stroke-linejoin="miter"></path></svg>