<svg id="visual" viewBox="0 0 900 600" width="900" height="600" xmlns="http://www.w3.org/2000/svg" xmlns:xlink="http://www.w3.org/1999/xlink" version="1.1"><rect x="0" y="0" width="900" height="600" fill="#c0cace"></rect><path d="M0 345L5.8 334.5C11.7 324 23.3 303 34.8 306.7C46.3 310.3 57.7 338.7 69.2 337.7C80.7 336.7 92.3 306.3 103.8 306.8C115.3 307.3 126.7 338.7 138.2 351C149.7 363.3 161.3 356.7 173 356.2C184.7 355.7 196.3 361.3 207.8 361.3C219.3 361.3 230.7 355.7 242.2 353C253.7 350.3 265.3 350.7 277 341.5C288.7 332.3 300.3 313.7 311.8 301.8C323.3 290 334.7 285 346.2 299.2C357.7 313.3 369.3 346.7 380.8 349.8C392.3 353 403.7 326 415.2 322.3C426.7 318.7 438.3 338.3 450 346.8C461.7 355.3 473.3 352.7 484.8 350.2C496.3 347.7 507.7 345.3 519.2 337.3C530.7 329.3 542.3 315.7 553.8 305.7C565.3 295.7 576.7 289.3 588.2 300.2C599.7 311 611.3 339 623 344.8C634.7 350.7 646.3 334.3 657.8 327.7C669.3 321 680.7 324 692.2 318.3C703.7 312.7 715.3 298.3 727 290C738.7 281.7 750.3 279.3 761.8 277.8C773.3 276.3 784.7 275.7 796.2 277.5C807.7 279.3 819.3 283.7 830.8 301.3C842.3 319 853.7 350 865.2 348.5C876.7 347 888.3 313 894.2 296L900 279L900 601L894.2 601C888.3 601 876.7 601 865.2 601C853.7 601 842.3 601 830.8 601C819.3 601 807.7 601 796.2 601C784.7 601 773.3 601 761.8 601C750.3 601 738.7 601 727 601C715.3 601 703.7 601 692.2 601C680.7 601 669.3 601 657.8 601C646.3 601 634.7 601 623 601C611.3 601 599.7 601 588.2 601C576.7 601 565.3 601 553.8 601C542.3 601 530.7 601 519.2 601C507.7 601 496.3 601 484.8 601C473.3 601 461.7 601 450 601C438.3 601 426.7 601 415.2 601C403.7 601 392.3 601 380.8 601C369.3 601 357.7 601 346.2 601C334.7 601 323.3 601 311.8 601C300.3 601 288.7 601 277 601C265.3 601 253.7 601 242.2 601C230.7 601 219.3 601 207.8 601C196.3 601 184.7 601 173 601C161.3 601 149.7 601 138.2 601C126.7 601 115.3 601 103.8 601C92.3 601 80.7 601 69.2 601C57.7 601 46.3 601 34.8 601C23.3 601 11.7 601 5.8 601L0 601Z" fill="#0066FF" stroke-linecap="round" stroke-linejoin="miter"></path></svg>